<?xml version="1.0" encoding="UTF-8"?>
<svg id="Capa_2" data-name="Capa 2" xmlns="http://www.w3.org/2000/svg" viewBox="0 0 176.31 153.41">
  <defs>
    <style>
      .cls-1 {
        fill: #a111bb;
      }
    </style>
  </defs>
  <g id="Capa_3" data-name="Capa 3">
    <path class="cls-1" d="M126.2,60.02c-15.34,0-30.69-.08-46.03,.07-2.8,.03-3.51-.68-3.54-3.48-.03-2.91,.91-3.42,3.59-3.41,30.69,.09,61.38,.08,92.06,.02,2.42,0,3.83,.08,3.79,3.25-.03,3.07-1.05,3.62-3.85,3.6-15.34-.12-30.69-.06-46.03-.06Z"/>
    <path class="cls-1" d="M49.85,100.32c-15.47,0-30.94-.09-46.41,.08-3,.03-3.4-1.03-3.44-3.62-.04-2.67,.83-3.28,3.39-3.27,30.94,.08,61.87,.09,92.81-.01,2.81,0,3.22,.99,3.18,3.42-.04,2.32-.19,3.51-3.12,3.48-15.47-.16-30.94-.08-46.41-.08Z"/>
    <path class="cls-1" d="M29.68,19.79c-8.85,0-17.7-.09-26.55,.06-2.54,.04-3.16-.85-3.09-3.2,.07-2.15,.24-3.38,2.98-3.37,17.95,.12,35.89,.13,53.84,0,2.92-.02,2.7,1.46,2.83,3.44,.16,2.42-.61,3.17-3.09,3.13-8.97-.14-17.95-.06-26.92-.05Z"/>
    <path class="cls-1" d="M142,19.79c-9.97,0-19.94,.06-29.92-.04-2.27-.02-3.37,.47-4.24,2.9-2.71,7.52-10.49,11.75-18.12,10.34-7.59-1.4-13.35-7.92-13.67-15.49-.35-8.09,4.82-15.04,12.66-17.01,7.87-1.98,16.15,2.13,19.05,9.86,.93,2.48,2.13,3.05,4.58,3.04,19.94-.09,39.89-.06,59.83-.05,3.46,0,4.96,2.25,3.69,5.43-.67,1.7-2.11,.97-3.2,.98-10.22,.06-20.44,.04-30.66,.04ZM92.63,6.8c-5.53,0-9.84,4.34-9.83,9.89,0,5.47,4.09,9.6,9.59,9.69,5.69,.1,9.87-3.96,9.92-9.63,.05-5.78-4.01-9.96-9.68-9.95Z"/>
    <path class="cls-1" d="M60.33,56.92c-.08,8.11-5.56,14.4-14.1,16.19-6.94,1.46-14.73-2.76-17.57-10.04-1.03-2.63-2.38-3.16-4.87-3.11-6.97,.14-13.95-.12-20.92,.13-3.01,.11-2.8-1.49-2.78-3.44,.02-1.9-.33-3.58,2.74-3.47,7.09,.25,14.2-.02,21.29,.14,2.42,.05,3.6-.52,4.55-2.97,2.96-7.63,10.8-11.47,19.09-9.77,6.99,1.43,12.64,8.77,12.56,16.34Zm-16.57,9.75c5.29,.1,9.84-4.46,9.83-9.87,0-5.45-4.34-9.95-9.69-10.09-5.16-.13-9.82,4.6-9.83,9.99-.01,5.63,4.1,9.87,9.69,9.97Z"/>
    <path class="cls-1" d="M100.19,140.29c-.82,.2-1.5,.81-1.75,1.62-2.1,6.79-7.77,11.3-14.63,11.49-7.92,.22-14.41-4.11-16.67-11.13-2.39-7.43,.37-15.08,7.03-19.48,5.71-3.77,14.41-3.02,19.72,1.75,2.06,1.85,3.71,4.15,4.4,6.74,.61,2.29,1.78,2.54,3.72,2.54,6.6-.03,13.21,.07,19.81,.12,1.16,.69,3.22,.64,2.43,2.94-.24,.31-.55,.52-.92,.65-.24,.05-.57,0-.72,.13-4.38,2.46-10,2.06-15.33,2.48-2.22,.18-4.74-.42-7.08,.15Zm-17.17-13.12c-5.64-.11-9.89,4.01-9.96,9.67-.07,5.49,3.98,9.79,9.34,9.93,5.75,.14,10.05-3.86,10.17-9.48,.12-5.8-3.84-10-9.55-10.12Z"/>
    <path class="cls-1" d="M29.64,140.14c-8.85,0-17.7-.09-26.55,.06-2.54,.04-3.16-.85-3.09-3.2,.07-2.15,.24-3.38,2.98-3.37,17.95,.12,35.89,.13,53.84,0,2.92-.02,2.7,1.46,2.83,3.44,.16,2.42-.61,3.17-3.09,3.13-8.97-.14-17.95-.06-26.92-.05Z"/>
    <path class="cls-1" d="M146.28,19.86c-8.85,0-17.7-.09-26.55,.06-2.54,.04-3.16-.85-3.09-3.2,.07-2.15,.24-3.38,2.98-3.37,17.95,.12,35.89,.13,53.84,0,2.92-.02,2.7,1.46,2.83,3.44,.16,2.42-.61,3.17-3.09,3.13-8.97-.14-17.95-.06-26.92-.05Z"/>
    <path class="cls-1" d="M129.89,80.64c6.93-1.51,14.75,2.65,17.64,9.91,1.05,2.62,2.4,3.14,4.9,3.07,6.97-.19,13.95,.02,20.92-.27,3.01-.13,2.81,1.47,2.81,3.42,0,1.9,.36,3.58-2.72,3.49-7.09-.2-14.2,.12-21.29,.01-2.42-.04-3.6,.55-4.53,3-2.91,7.65-10.72,11.55-19.02,9.91-7-1.38-12.7-8.68-12.68-16.26,.02-8.11,5.46-14.44,13.99-16.29m2.51,6.43c-5.29-.07-9.81,4.53-9.76,9.94,.05,5.45,4.41,9.92,9.76,10.02,5.16,.1,9.79-4.67,9.76-10.06-.03-5.63-4.17-9.84-9.76-9.91Z"/>
    <path class="cls-1" d="M135.82,133.6c12.57,0,25.13,.09,37.7-.08,2.44-.03,2.76,1.03,2.79,3.62,.04,2.67-.67,3.28-2.75,3.27-25.13-.08-50.26-.09-75.39,.01-2.28,0-2.62-.99-2.59-3.42,.03-2.32,.16-3.51,2.54-3.48,12.57,.16,25.13,.08,37.7,.08Z"/>
  </g>
</svg>